<svg viewBox="0 0 186 60" fill="none" xmlns="http://www.w3.org/2000/svg">
<path d="M69.9259 45.3497C69.9259 45.1214 69.9259 44.8171 69.9259 44.5127V37.6646C69.9259 36.5993 69.7148 35.5341 69.2927 34.5449C68.8706 33.6318 68.2375 32.8709 67.3933 32.4144C66.4085 31.8817 65.3532 31.5774 64.2277 31.6535C63.2428 31.6535 62.3283 31.8817 61.4138 32.2622C60.5696 32.6427 59.8661 33.3275 59.3737 34.0884C58.8812 35.0014 58.5998 35.9906 58.5998 37.0559H60.5696C60.5696 36.4472 60.7103 35.8384 61.062 35.3058C61.4138 34.7732 61.8358 34.3927 62.3986 34.1645C62.9614 33.8601 63.6649 33.7079 64.298 33.7079C65.0015 33.7079 65.705 33.8601 66.3381 34.2405C66.8305 34.5449 67.2526 35.0014 67.534 35.6102C67.8154 36.2189 67.9561 36.8276 67.9561 37.5124V37.7407L64.7201 37.8929C63.0318 37.969 61.3434 38.4255 59.8661 39.3386C58.6702 40.0995 57.9667 41.4691 58.037 42.9148C58.037 43.7518 58.1777 44.5127 58.5998 45.1975C58.9516 45.8062 59.5144 46.3389 60.1475 46.6432C60.851 46.9476 61.5544 47.0998 62.3283 47.0998C63.1021 47.0998 63.8759 46.9476 64.5794 46.6432C65.2829 46.3389 65.9864 45.8823 66.5492 45.3497C67.1119 44.8171 67.6044 44.1323 67.8858 43.3714V46.6432H69.9259V46.0345C69.9259 45.8062 69.9259 45.578 69.9259 45.3497ZM67.8154 39.8712C67.8154 40.7843 67.6044 41.6974 67.1119 42.5344C66.6195 43.2953 65.9864 43.9801 65.2125 44.4366C64.5091 44.8932 63.6649 45.1214 62.8207 45.1214C62.1172 45.1975 61.4138 44.9692 60.7806 44.5127C60.2882 44.0562 60.0068 43.4474 60.0771 42.7626C60.0068 41.8496 60.5696 40.9365 61.4138 40.6321C62.5393 40.1756 63.7352 39.8712 64.9312 39.7951L67.8154 39.6429V39.8712Z" fill="#081631"/>
<path d="M77.1014 32.9471C76.3276 33.6319 75.7648 34.4689 75.4834 35.458V31.9579H73.5137V46.6433H75.5538V39.7191C75.5538 38.6538 75.6945 37.5886 76.1165 36.5994C76.4683 35.7624 76.9607 35.0776 77.6642 34.621C78.2973 34.1645 79.0712 33.9362 79.845 33.9362H81.0409V31.9579H79.7746C78.7898 31.9579 77.8752 32.2622 77.1014 32.9471Z" fill="#081631"/>
<path d="M84.9805 31.9579H82.9404V46.6433H84.9805V31.9579Z" fill="#081631"/>
<path d="M83.9949 26.0228C83.6431 26.0228 83.221 26.175 82.9396 26.4033C82.4472 27.012 82.4472 27.9251 82.9396 28.4577C83.221 28.7621 83.5728 28.9143 83.9245 28.8382C84.3466 28.8382 84.6983 28.686 84.9797 28.4577C85.5425 27.9251 85.5425 26.9359 84.9797 26.4033C84.7687 26.175 84.3466 26.0228 83.9949 26.0228Z" fill="#081631"/>
<path d="M98.1352 32.6427C95.9544 31.2731 93.2108 31.2731 91.03 32.6427C89.9748 33.3275 89.0603 34.3167 88.4975 35.458C87.3016 37.8929 87.3016 40.7843 88.4975 43.2192C89.1307 44.3606 89.9748 45.3497 91.03 46.0345C92.0853 46.7194 93.3515 47.0998 94.6178 47.0237C95.8841 47.0237 97.08 46.7194 98.2056 46.0345C99.2608 45.3497 100.175 44.3606 100.738 43.2192C101.934 40.7843 101.934 37.8929 100.738 35.458C100.105 34.2406 99.1904 33.3275 98.1352 32.6427ZM98.909 42.23C98.4869 43.067 97.8538 43.7518 97.08 44.2845C95.5323 45.2736 93.5626 45.2736 92.0149 44.2845C91.2411 43.8279 90.608 43.067 90.1859 42.23C89.2713 40.4039 89.2713 38.2734 90.1859 36.4472C90.608 35.6102 91.2411 34.9254 92.0149 34.3928C93.5626 33.4036 95.5323 33.4036 97.08 34.3928C97.8538 34.8493 98.4869 35.6102 98.909 36.4472C99.8236 38.2734 99.8236 40.4039 98.909 42.23Z" fill="#081631"/>
<path d="M111.22 31.5774C110.447 31.5774 109.743 31.7296 109.04 32.0339C108.406 32.3383 107.773 32.7187 107.281 33.2514C106.788 33.7079 106.366 34.3166 106.155 35.0014V31.9578H104.186V46.6432H106.226V38.882C106.226 37.8929 106.437 36.9798 106.859 36.1428C107.211 35.3819 107.844 34.7732 108.547 34.3166C109.251 33.8601 109.954 33.6318 110.728 33.6318C111.853 33.5557 112.909 34.0123 113.683 34.9254C114.456 35.9906 114.808 37.3602 114.738 38.7299V46.6432H116.778V38.7299C116.778 36.3711 116.285 34.621 115.371 33.4035C114.316 32.11 112.768 31.5013 111.22 31.5774Z" fill="#081631"/>
<path d="M130.214 31.9578H129.018L121.561 41.0887V26.175H120.646V46.8715H121.561V42.6105L124.586 38.882L129.932 46.8715H131.128L125.219 38.045L130.214 31.9578Z" fill="#081631"/>
<path d="M141.4 32.6427C139.219 31.2731 136.546 31.2731 134.365 32.6427C133.31 33.3275 132.466 34.3167 131.833 35.458C130.566 37.8929 130.566 40.8604 131.833 43.2953C132.466 44.4367 133.31 45.4258 134.365 46.1106C136.546 47.4803 139.219 47.4803 141.4 46.1106C142.455 45.4258 143.299 44.4367 143.932 43.2953C145.199 40.8604 145.199 37.8929 143.932 35.458C143.299 34.3167 142.455 33.3275 141.4 32.6427ZM143.932 39.4147C143.932 40.6322 143.651 41.7735 143.159 42.8388C142.666 43.8279 141.892 44.6649 140.978 45.2737C139.078 46.4911 136.757 46.4911 134.928 45.2737C134.013 44.6649 133.239 43.8279 132.747 42.8388C131.692 40.7082 131.692 38.1212 132.747 35.9907C133.239 35.0015 134.013 34.1645 134.928 33.5558C136.827 32.3383 139.149 32.3383 140.978 33.5558C141.892 34.1645 142.666 35.0015 143.159 35.9907C143.651 37.0559 143.932 38.1973 143.932 39.4147Z" fill="#081631"/>
<path d="M159.268 35.5341C158.987 35.0014 158.706 34.5449 158.283 34.0884C157.65 33.3275 156.876 32.7187 156.032 32.3383C153.992 31.3491 151.6 31.5013 149.701 32.7187C148.646 33.4035 147.802 34.3927 147.168 35.5341C145.902 37.969 145.902 40.9365 147.168 43.4474C147.802 44.5888 148.646 45.578 149.701 46.2628C150.756 46.9476 151.952 47.328 153.218 47.328C155.118 47.328 156.876 46.491 158.213 45.0453C158.635 44.5888 158.987 44.0562 159.198 43.4474V46.9476H160.112V26.175H159.198V35.5341H159.268ZM158.494 35.9906C159.55 38.1211 159.55 40.7082 158.494 42.8387C158.002 43.8279 157.228 44.6649 156.314 45.2736C154.414 46.491 152.093 46.491 150.264 45.2736C149.349 44.6649 148.575 43.8279 148.083 42.8387C147.52 41.7735 147.239 40.6321 147.239 39.4147C147.239 38.1972 147.52 37.0559 148.083 35.9906C148.575 35.0014 149.349 34.1644 150.264 33.5557C152.163 32.3383 154.485 32.3383 156.314 33.5557C157.228 34.1644 157.932 35.0014 158.494 35.9906Z" fill="#081631"/>
<path d="M173.126 32.6427C172.141 31.9579 171.016 31.5774 169.82 31.6535C168.624 31.6535 167.498 32.034 166.443 32.7188C165.388 33.4036 164.544 34.3928 163.981 35.5341C162.785 37.969 162.785 40.9365 163.981 43.3714C164.544 44.5128 165.388 45.5019 166.443 46.1867C167.428 46.8716 168.624 47.252 169.82 47.252C171.578 47.252 173.197 46.4911 174.463 45.1976C175.096 44.5128 175.588 43.7519 175.87 42.8388L176.01 42.5344H175.026L174.955 42.6866C174.674 43.4475 174.252 44.0562 173.759 44.6649C173.267 45.1976 172.634 45.6541 172.001 45.8824C171.367 46.1867 170.664 46.2628 169.96 46.2628C168.976 46.2628 167.991 45.9585 167.147 45.4258C166.232 44.8171 165.458 43.9801 164.966 42.991C164.403 41.9257 164.122 40.7843 164.122 39.5669H176.503V39.1104C176.503 37.8168 176.221 36.5994 175.588 35.458C174.955 34.2406 174.111 33.3275 173.126 32.6427ZM175.448 38.5016H164.051C164.122 37.5125 164.473 36.5233 164.966 35.6863C165.529 34.7732 166.232 34.0123 167.076 33.4797C167.92 32.9471 168.835 32.6427 169.82 32.7188C170.805 32.7188 171.719 33.0231 172.563 33.5558C173.408 34.0884 174.111 34.8493 174.603 35.8385C175.096 36.5233 175.377 37.5125 175.448 38.5016Z" fill="#081631"/>
<path d="M184.733 31.9579C183.115 31.9579 181.638 32.7188 180.653 34.0884C180.372 34.4689 180.161 34.9254 179.95 35.3059V31.9579H179.035V46.8716H179.95V39.643C179.95 38.4255 180.161 37.2081 180.583 36.0668C180.935 35.1537 181.568 34.3167 182.342 33.708C183.045 33.1753 183.889 32.871 184.733 32.871H186V31.9579H184.733Z" fill="#081631"/>
<path d="M47.907 32.11C45.0227 32.4905 42.1384 32.7187 39.2542 32.5666C39.0431 30.8165 38.5507 29.1425 37.7769 27.5446C37.2844 26.6315 36.792 25.5663 36.2996 24.3488C35.5257 22.7509 35.385 20.8487 35.7368 19.0986C36.9327 20.3921 38.9024 22.3705 40.5908 22.6749C40.8018 22.7509 41.0129 22.7509 41.2239 22.7509C43.6157 22.7509 45.4448 19.9356 45.5855 19.7834L45.9372 19.3269L38.5507 4.26105L36.9327 5.17413L37.0734 5.4024L37.3548 5.85894C37.0734 5.63067 36.7216 5.47849 36.3699 5.4024C31.2345 5.63067 28.3502 8.29382 26.7322 10.6526C25.7474 12.1744 24.9735 13.8484 24.5514 15.6746H26.4508C26.8026 14.3049 27.4357 12.9353 28.2095 11.794C30.3903 8.59818 33.6967 7.15247 38.0583 7.53292L43.7564 19.0986C43.1233 19.8595 41.9977 20.9248 40.9425 20.6965C39.6059 20.3921 37.2844 18.0334 36.1589 16.5876L35.385 15.5985L34.6816 16.6637C34.6112 16.8159 32.5711 20.24 34.6112 25.0336C35.174 26.3272 35.6664 27.4685 36.1589 28.3816C36.792 29.5991 37.2141 30.9687 37.4251 32.3383C31.5159 31.8057 27.2247 29.6751 24.6218 26.0989C18.7829 18.2616 23.1445 5.4024 23.2148 5.25022L23.6369 4.10887L0 0L0.211044 1.36962C2.53253 17.8051 13.0144 25.338 16.4614 27.849C18.5719 29.2947 20.0492 31.5774 20.6823 34.1645C20.7527 34.3927 20.7527 34.5449 20.823 34.7732C16.6021 32.7948 12.8033 29.9795 9.42663 26.5554L8.72315 25.7945L8.09002 26.6315C6.68306 28.5338 5.83888 30.9687 5.83888 33.4036C5.83888 36.8276 7.38654 40.0995 10.4818 43.1431C10.3412 45.578 8.09002 47.4041 8.09002 47.4041L7.45689 47.8607L12.6626 59.5025H19.5567L18.5719 57.9807C15.969 53.8718 14.351 49.4586 15.1952 48.8498C19.7678 45.3497 22.3003 41.6213 22.7224 37.6646C24.5514 38.2733 26.4508 38.7299 28.3502 38.882L28.913 40.7082L29.1944 42.0017L29.3351 42.8387C29.4055 45.5019 26.9433 47.4802 26.9433 47.4802L26.2398 48.0129L26.6619 48.7738L31.2345 59.0459L31.5159 59.5786H38.4803L37.3548 57.9807C36.1589 56.3067 33.1339 51.0565 34.2595 48.5455L37.2844 42.23C38.199 40.556 38.8321 38.806 39.1135 36.9037C39.2542 36.1428 39.3245 35.3819 39.3949 34.5449C41.9977 34.621 44.5303 34.4688 47.1331 34.1645C46.7814 44.5888 42.3495 44.5888 40.8018 44.5888V46.5671C44.5303 46.5671 48.9622 44.2084 48.9622 33.0992V31.9578L47.907 32.11ZM14.1399 47.1759C12.0295 48.7738 13.9289 52.9587 14.562 54.3283C15.1248 55.5458 15.6876 56.611 16.18 57.5241H13.8586L9.77837 48.3933C10.7632 47.4041 12.4516 45.3497 12.3109 42.5344V42.1539L11.9592 41.9256C5.83888 36.2189 7.52723 31.0448 8.86384 28.686C12.3812 32.1861 16.3911 35.0014 20.823 36.9798C20.6823 40.4799 18.3608 43.9801 14.1399 47.1759ZM37.3548 36.5233C37.0734 38.1972 36.5106 39.7951 35.7368 41.2408L32.7118 47.6324C31.3048 50.7521 33.4856 55.1653 34.9629 57.6002H32.7118L28.6316 48.4694C29.5462 47.5563 31.3048 45.4258 31.1642 42.6105V42.23L31.0938 42.1539L30.9531 41.5452L30.6014 40.0995L29.5462 36.9037H28.913C26.8026 36.8276 24.6921 36.3711 22.652 35.6102C22.5817 35.0014 22.5114 34.3927 22.3707 33.784C21.6672 30.6643 19.9085 28.0012 17.4463 26.2511C14.2806 23.9684 4.71331 17.1203 2.18079 2.51097L21.1044 5.70676C20.1195 9.2069 17.7277 19.9356 23.1445 27.3924C26.0991 31.5013 30.9531 33.8601 37.5658 34.3927C37.5658 35.1536 37.4955 35.8384 37.3548 36.5233Z" fill="#081631"/>
</svg>
